# xmcd
#
# Track frame offsets:
# 150
# 52727
# 100054
# 157806
# 209998
# 227838
# 291336
# 307342
#
# Disc length: 4352 seconds
#
#
# Revision: 0
# Processed by: cddbd v1.5.1PL2 Copyright (c) Steve Scherf et al.
# Submitted via: FreeRIP 2.944 
#
DISCID=7110fe08
DTITLE=Zeljko Samardzic - Trio Gust and Zeljko Samardzic
DYEAR=2003
DGENRE=Pop
TTITLE0=Trio Gust - Dalmix
TTITLE1=Trio Gust - Popmix
TTITLE2=Trio Gust - Mexmix
TTITLE3=Trio Gust - Gemixisit
TTITLE4=Zeljko Samardzic - Mi mu timonis, matia mu
TTITLE5=Zeljko Samardzic - Bila je tako lijepa
TTITLE6=Zeljko Samardzic - Jedne noci jedne zime
TTITLE7=Zeljko Samardzic - Opa nina nina na
EXTD=
EXTT0=
EXTT1=
EXTT2=
EXTT3=
EXTT4=
EXTT5=
EXTT6=
EXTT7=
PLAYORDER=
